<svg xmlns="http://www.w3.org/2000/svg" viewBox="0 0 627.68 627.76"><title>RosieLogo</title><path d="M714.44,400.83c.32,172.66-141.63,315.83-318,313.62-170.31-2.13-311.27-141.91-309.66-317C88.36,225,230.25,84.16,405.53,86.75,576.64,89.28,714.86,229.68,714.44,400.83ZM704,400.54c.1-165.81-134.07-301.7-300.28-303.33-168.8-1.65-306.39,135-306.52,303.57C97.05,568.16,234,704.42,401.85,704,568.37,703.61,704,567.4,704,400.54Z" transform="translate(-86.76 -86.72)"/><path d="M373,507.32c-2.45,4-4.51,8.28-7.44,11.87a51.36,51.36,0,0,1-10.52,10c-7.88,5.37-17,5-23.54-2-15.38-16.43-30.41-33.23-37.26-55.51-2.17-7.05-1.47-14.26-2-21.39-.62-8.19-.8-16.41-1.1-24.62a2.5,2.5,0,0,0-1.79-2.62c-12.27-5.25-20.61-14.41-25.58-26.6-1.25-3.07-1.45-6.64-1.77-10-2-21.31-4.1-42.61-5.7-63.95-.89-11.82-.2-23.63,3.71-35a39.23,39.23,0,0,1,2.11-5.11c6.47-12.59,17.1-16.79,30.56-12,9,3.19,16.6,8.78,23.86,14.81A117.51,117.51,0,0,1,349,327.49c.18.4.4.79.4.79,4.9-2.88,9.6-5.94,14.56-8.48a32.84,32.84,0,0,1,15.29-3.21c13.48,0,27,.22,40.44-.06,11.17-.22,20.78,3.45,29.36,10.3l2.49,2c1.83-3.54,3.47-7,5.37-10.35a118,118,0,0,1,44.28-44.68c5.82-3.36,12.08-5.66,18.94-5.2,8.74.59,14.65,5.54,18.58,13a53,53,0,0,1,6,25.06c-.11,14.56-.79,29.13-1.81,43.66-.89,12.78-2.85,25.49-3.84,38.27-.71,9.14-5.24,16.18-10.86,22.77A42,42,0,0,1,512,423.1a2.74,2.74,0,0,0-2,2.84c-.52,12.72-.9,25.46-1.81,38.15a45.14,45.14,0,0,1-3.13,12.77,111.62,111.62,0,0,1-27.65,41.26c-.86.82-1.47,1.88-2.28,2.77-2.35,2.58-4.45,5.51-7.17,7.62-7.46,5.76-16.19,5.49-24-.35-8.11-6-13.16-14.38-16.94-23.5A84.08,84.08,0,0,1,423.1,492c-2.36-9.8-8.17-16.13-18-18.46-1.82-.43-2.35-1.14-2.35-2.94q0-8-.36-16.05c-.09-2,.67-3,2.31-4.12,5.16-3.66,10.5-7.26,14.95-11.7,5.69-5.7,4.5-10.65-2.87-14a24.46,24.46,0,0,0-9.28-2.38,135.2,135.2,0,0,0-19,.82c-2.57.29-5.2,1.91-7.37,3.51-4.18,3.07-4.77,6.44-1.19,10.37,3.8,4.19,7.93,8.57,12.82,11.15,5.34,2.83,6.39,6.33,5.78,11.59a106.87,106.87,0,0,0-.36,11.33,2,2,0,0,1-1.94,2.39c-10.05,2.17-15.91,8.56-18.47,18.39-1.36,5.24-3.17,10.36-4.78,15.53ZM510,412.42a37.91,37.91,0,0,0,16.75-17.48,15,15,0,0,0,1.52-4.95c1.84-17.52,3.71-35.05,5.3-52.6,1.06-11.76,1.89-23.57.26-35.36-.85-6.16-2.13-12.21-5.64-17.49-2.86-4.32-6.89-6.52-12.08-5.13a41.26,41.26,0,0,0-10.26,3.9,107.69,107.69,0,0,0-45.21,51.53,4,4,0,0,0,.59,4.7c2.38,3.09,4.44,6.43,6.76,9.84l-9.42,4.86c-6.31-10.12-13.44-19.11-25-24.7,0,4.25-.06,7.91,0,11.57q.5,27.54,1.07,55.08c.08,3.69.73,7.14,4.52,9.09a8.43,8.43,0,0,1,2.43,2.23c8.24,10.06,16.58,20,24.55,30.3a26,26,0,0,1,4.9,10.1c2.07,9.8,3.79,19.71,5,29.66,1,8.1,1.07,16.31,1.55,24.49.18,0,.41,0,.51-.1a16.38,16.38,0,0,0,1.1-1.25A102.06,102.06,0,0,0,495.68,472c.88-2.41,1.94-4.89,2.11-7.39.6-8.28.89-16.57,1.17-24.87s.86-16.61.41-24.87c-.36-6.63-2.06-13.2-3.23-20.18l8.11-4.73C508.2,397,508.75,404.67,510,412.42ZM323.15,502.05c1.33-13.78,2.46-27.47,4-41.11,1.2-10.3,4.25-20,11.29-28,1.88-2.15,3.34-4.67,5.23-6.81,6.39-7.25,12.76-14.54,19.43-21.54,1.68-1.75,3.06-3.26,3.23-5.71.17-2.3.59-4.59.63-6.89q.39-25.74.67-51.49c0-3.46,0-6.92,0-11-11.53,5.67-18.67,14.65-24.95,24.78l-9.16-4.74a19.35,19.35,0,0,1,1-1.91c1.79-2.69,3.48-5.46,5.47-8a4,4,0,0,0,.67-4.68A107.32,107.32,0,0,0,302.75,288a67.06,67.06,0,0,0-15.33-8c-6.87-2.55-11.76-.29-15.25,6.17a38.83,38.83,0,0,0-3.17,8.22c-2.84,10.67-2.86,21.57-2,32.45,1.42,17.66,3.17,35.29,4.75,52.94.71,7.93,1.44,15.79,7.09,22.21,3.61,4.1,7.33,7.93,12.55,10.42,1.13-7.73,1.77-15.27,5.37-22.32l8.94,5.06a71.94,71.94,0,0,0-4.15,25.31c.18,12.46,1,24.9,1.52,37.35.12,2.67-.19,5.47.51,8C307.38,479.36,314.35,491.3,323.15,502.05ZM467,497.67l.27-.05c-1.11-11.47-1.86-23-3.48-34.39-.86-6-1.91-12.74-5.2-17.54-7.49-10.91-16.35-20.89-24.82-31.11a14.46,14.46,0,0,0-5.58-3.94c-13.94-5.53-28.28-7.55-43.09-4.18-9.13,2.06-17.15,5.9-23,13.65-5.6,7.45-11.44,14.71-17.29,22a31.09,31.09,0,0,0-6.11,13.75c-3.81,19-4.47,38.27-4.46,57.57a3.62,3.62,0,0,0,.53,2.07c5.75,7.81,10.88,8.79,17.71,2.81a27,27,0,0,0,2.88-3,57.63,57.63,0,0,0,12.21-25.71,32.89,32.89,0,0,1,17.72-23.44c3.58-1.86,3.8-7.42.38-9.7-6.19-4.13-11.89-8.8-15.72-15.32-4.46-7.57-3.42-15.84,2.95-21.34a33.81,33.81,0,0,1,8.85-5.52c8.22-3.45,17-3.09,25.65-2.61a35.52,35.52,0,0,1,15.33,4.22c11.61,6.36,14.13,17.51,6.24,28.12-3.91,5.26-9,9.24-14.38,12.84-2.7,1.8-2.37,7.65.5,9.1,10,5,16,13.12,18.26,24a53.74,53.74,0,0,0,9.47,21.89,37.89,37.89,0,0,0,9.24,8.94c5.71,3.72,14.94-2.07,14.93-8.95ZM423.58,397.14V327.21H377.71v69.52c7.3-.73,15.06-2.17,22.81-2.1S416.2,396.28,423.58,397.14Z" transform="translate(-86.76 -86.72)"/><path d="M543.44,181.16c-6.46,5.35-12.94,10.67-19.36,16.06-1.67,1.41-3,2.21-5.3.8s-3.32-2.6-2.73-5.43c1.58-7.67,2.85-15.4,4.23-23.11a2.94,2.94,0,0,0-.22-1.89c-1,1.27-1.94,2.52-2.89,3.81-4,5.41-8,10.81-12,16.28-1.25,1.74-2.36,2.22-4.3,1-5.05-3.29-5.68-1.88-1.64-7.39,7.05-9.6,14.12-19.17,21.07-28.84,1.43-2,2.51-2.61,4.85-1.14,6.54,4.11,5.77,1.76,4.38,9.75-1.28,7.36-2.63,14.7-3.93,22-.14.76-.14,1.55-.26,3L538.44,175c3.17-2.69,6.39-5.32,9.49-8.08a2.61,2.61,0,0,1,3.69-.31c.53.37,1.11.67,1.66,1,5.8,3.42,5.25,2,2.65,8-4.84,11.06-9.83,22.05-14.65,33.12-.89,2-1.73,2.42-3.65,1.21-5.74-3.61-5.27-2.09-2.71-8,2.94-6.83,6-13.6,9-20.39Z" transform="translate(-86.76 -86.72)"/><path d="M632.81,306.82l19.06-8.59c.33-.15.65-.34,1-.48,5.91-2.53,4.66-3.06,7.61,2.94,1.09,2.22.45,3.32-1.68,4.26-8.26,3.64-16.47,7.41-24.7,11.13-3.53,1.59-7.08,3.14-10.56,4.82-1.63.79-2.37.33-3.25-1.17-2.16-3.68-2.18-6.75.34-10.58,5.57-8.46,10.49-17.33,16.06-26.68-1.5.6-2.4.92-3.27,1.32-7.31,3.3-14.63,6.56-21.89,10-1.87.87-2.75.56-3.58-1.34-3-6.84-3.26-5.21,3-8.11,10.62-4.92,21.35-9.61,32-14.52,2.18-1,3.06-.57,4.27,1.49,2.39,4.06,2.06,7.35-.57,11.33-5.08,7.67-9.52,15.77-14.23,23.69Z" transform="translate(-86.76 -86.72)"/><path d="M173.59,259.85a22.83,22.83,0,0,1-1,45.65c-13-.42-22.7-11-22.21-24.3C150.81,269.46,161.7,259.44,173.59,259.85Zm-.3,36.88a13.88,13.88,0,0,0,14.11-13.41,14.55,14.55,0,0,0-14.26-14.64,14,14,0,0,0-14.34,13.51C158.59,289.76,165.33,296.51,173.29,296.73Z" transform="translate(-86.76 -86.72)"/><path d="M468.61,176.5A22.63,22.63,0,0,1,445.79,154a22.92,22.92,0,0,1,22.75-23c12.86,0,22.82,10.15,22.88,23.35C491.47,166.54,481.29,176.43,468.61,176.5Zm.07-8.4c7.6,0,14.07-6.78,14-14.58a14.19,14.19,0,0,0-14.09-14.08c-7.72.1-14,6.84-13.92,14.92A13.89,13.89,0,0,0,468.68,168.1Z" transform="translate(-86.76 -86.72)"/><path d="M160.55,325.65c6-1.21,11.8-2.36,17.57-3.49.14,0,.33.12,1,.41-.71,2.69-1.33,5.5-2.26,8.21-.21.6-1.45,1-2.29,1.19-3.86.86-7.72,1.75-11.63,2.36-2.14.34-3.21,1.31-3.57,3.4-.33,1.89-.87,3.74-1.38,5.88,4,1,7.89,2.13,11.81,3,2.1.49,3,1.24,2.24,3.59-2.05,6.67-.43,6.07-7.27,4.31-11.5-3-23-6.06-34.47-8.94-2.25-.56-2.56-1.56-2-3.51,1.53-5.68,2.91-11.4,4.47-17.07s6.47-9.4,12.63-10a14,14,0,0,1,13.85,7.74C159.66,323.64,160.05,324.57,160.55,325.65Zm-10.32,16c.86-3.8,1.91-7.24,2.37-10.76.43-3.28-1.55-5.74-4.61-6.62-2.88-.83-6,.14-7.26,3-1.5,3.47-2.3,7.24-3.45,11Z" transform="translate(-86.76 -86.72)"/><path d="M250.55,176.1l4.7,7.38c4-2.53,7.79-5,11.69-7.4,1.08-.65,3.18-1.5,3.56-1.09a22.43,22.43,0,0,1,3.46,5.55c.13.28-1,1.38-1.74,1.85-4.06,2.68-8.17,5.28-12.49,8.05l5.73,9,12.18-7.74c.86-.54,1.69-1.12,2.55-1.66,5.91-3.67,4.28-3.81,8.24,2,1,1.44.53,2.25-.82,3.11Q276,202.5,264.57,210c-1.67,1.09-2.5.7-3.5-.87Q250.56,192.49,239.88,176c-1-1.61-.89-2.47.76-3.51q11.24-7.06,22.34-14.34c1.6-1,2.59-.83,3.58.79,3.52,5.72,3.68,4.46-1.68,7.94C260.17,170,255.43,173,250.55,176.1Z" transform="translate(-86.76 -86.72)"/><path d="M334.81,148.14v6.17c-5.19,1.72-6.45,3.57-5.39,7.84a7,7,0,0,0,8.41,5.36c4.25-.76,6.62-3.65,6.21-7.83l-5-.57V152c4.31-.17,8.69-.37,13.06-.49,4.58-.14,5-.44,5.89-5a36.8,36.8,0,0,1,5.37-.39c.57,0,1.52,1.23,1.54,1.92a10.41,10.41,0,0,1-9.43,11c-.82.11-1.65.15-2.67.23-.08,9.24-5.16,14.35-13.88,16.17-6.15,1.28-12.78-1.29-15.76-6.22-3.48-5.76-2.92-11.4,1.24-16.77-3.76-3.59-6-7.7-4.48-13.06,1.48-5.17,6.71-8.69,12.79-8.67a10.89,10.89,0,0,1,10.79,8.23c.48,1.64.09,2.46-1.49,2.85-.9.22-1.78.46-2.67.7-1.29.34-2.24.27-2.81-1.29-.91-2.46-2.79-3.22-5.33-2.54-2.34.63-3.74,1.92-3.57,4.5a4.87,4.87,0,0,0,4.38,4.6C332.86,147.9,333.76,148,334.81,148.14Z" transform="translate(-86.76 -86.72)"/><path d="M574.67,242.9c7.33-2,14.43-4,21.53-5.87,7.38-2,14.75-4.06,22.17-5.91a3.69,3.69,0,0,1,3.16,1.06c1.14,1.63,3.85,2.87,2.2,5.62Q612.39,256.65,601,275.48c-.21.36-.65.58-1.31,1.15-1.56-2.09-3.12-4-4.41-6.07-.33-.53.05-1.73.44-2.44,3.31-5.94,3.33-5.92-.81-11.38-1.9-2.5-3.69-5.08-5.72-7.47-.53-.62-1.78-.65-2.71-.92-.15,0-.35.07-.53.12C578.88,250.41,578.5,250.24,574.67,242.9Zm38.46-2.45-16.88,5c2.57,3.39,4.89,6.44,7.44,9.78Z" transform="translate(-86.76 -86.72)"/><path d="M226.84,236.28a21.08,21.08,0,0,1-17,21c-5.38,1-7.34-.9-6.07-6.23.16-.68,1.32-1.28,2.14-1.62,2.78-1.14,5.72-1.91,8.36-3.29,1.26-.66,2.17-2.24,2.9-3.6a5.57,5.57,0,0,0-.85-6.87c-2.06-1.88-4.17-1-6.14,0-3.38,1.86-6.58,4.09-10,5.79s-7.45,2.75-11.41.72A11.42,11.42,0,0,1,182.64,230a19.67,19.67,0,0,1,17-15.9c1.44-.15,3.11-.75,3.49,1.81.78,5.16.85,5.35-2.13,6-3.58.82-6.94,2-8.91,5.43-1.1,1.94-1.84,3.88-.12,5.86s3.76,1.55,5.73.41c3.51-2,6.89-4.31,10.5-6.15,4.5-2.3,9.15-2.83,13.58.38C225.3,230.49,226.83,234.09,226.84,236.28Z" transform="translate(-86.76 -86.72)"/><path d="M566.74,214.4c-3.09,3.27-6.1,6.36-9,9.59-1.36,1.53-2.45,1.62-3.87.16s-2.82-2.61-4.47-4.12c4.13-4.47,8-8.67,11.86-12.83,5.47-5.86,11-11.65,16.43-17.59,1.58-1.74,2.62-1.67,4.22-.1,3.74,3.69,7.7,7.16,11.44,10.85A14.21,14.21,0,0,1,574,221.07C571.54,219,569.23,216.71,566.74,214.4Zm5.26-5.67,5,4.68c.4.37.81.74,1.24,1.09a6.12,6.12,0,0,0,8.67-.4,6.27,6.27,0,0,0,.41-8.73c-1.94-2.15-4.19-4-6.43-6.12Z" transform="translate(-86.76 -86.72)"/><path d="M419.33,168.44c-12.58-.43-22-9.08-23.33-21.83-1.15-10.7,6.88-21.36,18.17-23.73a22.05,22.05,0,0,1,17.44,3.34c1.72,1.15,2.25,2.32.76,4-.06.06-.07.17-.12.25-2.55,4.17-2.56,4.17-6.94,1.95a13.71,13.71,0,0,0-17,3.43,15.07,15.07,0,0,0-.14,18.69,13.53,13.53,0,0,0,16.93,3.64c3.07-1.52,3.07-1.52,4.75,1.77,2.2,4.3,2.17,4.67-2.29,6.36A74.32,74.32,0,0,1,419.33,168.44Z" transform="translate(-86.76 -86.72)"/><path d="M668.47,325c.65,3.19,1.34,5.84,1.65,8.53.08.74-.81,1.78-1.52,2.38-4.48,3.81-9,7.53-13.93,11.58,5.62,1.53,10.78,3.11,16,4.31,2.81.64,4.41,1.81,4.59,4.83a43.25,43.25,0,0,0,1.07,5.58,33.22,33.22,0,0,1-3.5-.71c-7.44-2.43-14.85-5-22.32-7.31a10.06,10.06,0,0,0-4.53-.29c-4.53.81-9,1.75-13.51,2.86-2,.48-2.55-.1-3-2-1.37-6.09-1.45-6.08,4.45-7.43a13,13,0,0,1,1.63-.3,27.77,27.77,0,0,0,18.68-9.39c3.46-3.81,7.54-7.05,11.37-10.52C666.38,326.45,667.21,325.91,668.47,325Z" transform="translate(-86.76 -86.72)"/><path d="M373,507.4c2.92-.78,5.83-1.64,8.79-2.3a2.28,2.28,0,0,1,1.92.88c2.43,4.17,6.22,6.08,10.78,6.89,5,.9,10.06.84,14.61-1.42,3.08-1.53,5.64-4.12,9.08-6.73l8.78,2.86a23.65,23.65,0,0,1-13.81,13.7,36.19,36.19,0,0,1-26.46.28A21.53,21.53,0,0,1,373,507.32Z" transform="translate(-86.76 -86.72)"/><path d="M336,627.71c2.74-.62,3.24,1,3.66,2.83q3.71,16.15,7.46,32.3a7.77,7.77,0,0,0,.4,1c.54-.74,1-1.28,1.33-1.86,5.64-9.09,11.3-18.18,16.86-27.32,1-1.71,2.1-2.43,4.22-1.32a12.93,12.93,0,0,1-.8,2,58.31,58.31,0,0,1-4.3,6.77c-3.15,3.84-3.71,7.82-2.12,12.51,1.32,3.89,2,8,3.15,12.67.85-1.23,1.41-2,1.9-2.76q8.32-13.41,16.6-26.83c1-1.64,2-2.66,4.12-1-.44.85-.82,1.76-1.34,2.58-6.52,10.39-13,20.79-19.63,31.13-.55.85-1.75,1.29-2.64,1.92a9.58,9.58,0,0,1-1.65-2.57c-1.47-5.76-2.8-11.56-4.34-18-2.28,3.56-4.2,6.54-6.1,9.53-1.24,2-2.36,4-3.69,5.85a15.65,15.65,0,0,1-2.46,2.26c-.68-1-1.72-1.85-2-2.92-1.87-7.61-3.57-15.25-5.33-22.88-1-4.4-2-8.8-3-13.21A22.68,22.68,0,0,1,336,627.71Z" transform="translate(-86.76 -86.72)"/><path d="M242.83,227.69a21.28,21.28,0,0,1-1.75-1.58Q228,211.29,215,196.45c-1.17-1.31-1.16-2.21.19-3.44,4.82-4.37,4.8-4.43,9,.35,7.86,8.92,15.65,17.89,23.55,26.75,1.31,1.47,1.3,2.42-.2,3.59S244.48,226.28,242.83,227.69Z" transform="translate(-86.76 -86.72)"/><path d="M543.77,593.77l19.07,23a8.12,8.12,0,0,1,1.54,1.93,6,6,0,0,1,0,2.24c-.82-.08-1.93.15-2.39-.3A60.48,60.48,0,0,1,558,616c-6.07-7.31-12.18-14.6-18.19-22a10.17,10.17,0,0,1-1.13-3.08c1.13-.25,2.35-.92,3.38-.71,12.47,2.5,24.92,5.12,37.37,7.7.61.12,1.26.1,2.5.2-3.22-3.93-6.12-7.46-9-11C569.5,583,566,579,562.69,574.76c-.64-.8-1.11-2.7-.66-3.21,1.26-1.41,2.21,0,3,1q10.8,13,21.54,26a9.94,9.94,0,0,1,1.11,2.82c-1.15.3-2.39,1-3.44.83-12.37-2.52-24.71-5.19-37-7.81Z" transform="translate(-86.76 -86.72)"/><path d="M253.89,591.84A20.32,20.32,0,1,1,234,571.57,20.21,20.21,0,0,1,253.89,591.84Zm-3.23,0a17.05,17.05,0,1,0-34.1.18,17.05,17.05,0,0,0,34.1-.18Z" transform="translate(-86.76 -86.72)"/><path d="M215.11,548.16c0,10.16-5.23,17.67-13.07,20.5a19.8,19.8,0,0,1-22.19-6.32c-2.48-3.1-4.71-6.39-7.14-9.53-1.05-1.35-.79-2.27.49-3.21q14-10.33,28.06-20.7c1.35-1,2.41-1,3.47.49,2.29,3.24,4.75,6.36,7,9.6A18.2,18.2,0,0,1,215.11,548.16Zm-39.24,3.51c2.31,3.13,4.37,6.19,6.7,9a16.71,16.71,0,0,0,20.56,4c7.2-3.92,10.91-12.29,7.84-19.73-1.92-4.65-5.28-8.7-8.11-13.21Z" transform="translate(-86.76 -86.72)"/><path d="M494,658.39,478.8,622.54c2-1.81,3.09-1.17,3.91.79,2.21,5.26,4.45,10.52,6.68,15.78.35.81.74,1.6,1.36,2.94,2.49-6.7,4.77-12.87,7.06-19,1.05-2.85,2.18-5.68,3.14-8.55a4,4,0,0,1,4.15-3,24.62,24.62,0,0,1-.66,2.93c-1.84,5.11-3.63,10.24-5.65,15.28-.72,1.82-.27,2.56,1.36,3.37,7,3.44,14,7,21,10.52,1,.48,1.85,1.08,3,1.74-1.89,2.08-3.63,1.82-5.58.79-7-3.68-14-7.31-21.69-11.27-1.06,5.57-6.09,10.07-2.43,16.27.74,1.26,1.14,2.72,1.79,4C497.18,657.11,496.45,658.05,494,658.39Z" transform="translate(-86.76 -86.72)"/><path d="M260.55,624.45a20.21,20.21,0,0,1,38-9.55c.18.32.52.67.49,1a24.81,24.81,0,0,1-.55,2.56c-.8-.37-2-.51-2.33-1.13-2.77-5.09-6.72-8.42-12.57-9.39A17.1,17.1,0,0,0,264,621.41a17.29,17.29,0,0,0,12.79,19.86c5.07,1.15,5.55.94,8-3.58a43.48,43.48,0,0,1,2.74-4.8c.37-.51,1.49-.47,2.28-.68.19.73.76,1.65.51,2.15a89,89,0,0,1-5.3,9.38c-.54.8-2.26,1.07-3.47,1.12A20,20,0,0,1,260.55,624.45Z" transform="translate(-86.76 -86.72)"/><path d="M394,674.63c.82-2.27,1.58-4.4,2.38-6.52,3.83-10.27,7.64-20.54,11.55-30.77.37-1,1.4-1.69,2.13-2.53a10.7,10.7,0,0,1,2.08,2.31q7.95,17,15.74,34.14c.27.57.45,1.17.71,1.86-1.73,1.24-2.95.93-3.79-.89-1-2.18-1.86-4.43-3-6.51a3.38,3.38,0,0,0-2.42-1.51c-5.44.09-10.88.47-16.32.59a2.6,2.6,0,0,0-2.88,2.24c-.58,2-1.42,4-2.17,6C397.41,674.55,396.5,675.55,394,674.63Zm25.77-13.3-9.71-21.27c-2.67,7.29-5.11,13.92-7.52,20.57a1.61,1.61,0,0,0,0,.7Z" transform="translate(-86.76 -86.72)"/><path d="M580.81,557.2A19.79,19.79,0,0,1,594.72,538c1-.29,2.91-.08,3.21.51,1,1.9-.88,2.12-2.14,2.58-8.16,3-12.39,9.68-11.58,18.28.69,7.26,6.69,13.34,14.46,14.65,8.81,1.48,17.93-5.08,19.19-13.94a3.44,3.44,0,0,0-1-2.55c-1.8-1.71-3.9-3.11-5.67-4.84-.69-.67-1.41-2.27-1.08-2.82,1-1.63,2.17-.49,3.18.33a58.53,58.53,0,0,0,5.15,4.19c2.65,1.71,3.13,3.79,2.48,6.82-2.2,10.2-11.66,17.35-21.89,16.23A20.33,20.33,0,0,1,580.81,557.2Z" transform="translate(-86.76 -86.72)"/><path d="M452.26,666.53l21.12-4.6c1.26,2.19.76,3.09-1.36,3.54-6.67,1.41-13.32,2.92-19.95,4.48-1.75.41-2.5-.08-2.88-1.82q-3.72-17.14-7.57-34.26c-.27-1.2-.5-2.19,1.11-2.51s1.77.76,2,1.91q3.5,15.78,7,31.55C451.88,665.26,452,665.69,452.26,666.53Z" transform="translate(-86.76 -86.72)"/><path d="M523.57,600.85a7.07,7.07,0,0,1,1,1.17c6.22,10.22,12.44,20.45,18.57,30.72.3.5-.22,1.49-.35,2.25-.77-.14-2,0-2.24-.47Q531,619,521.67,603.37C520.9,602.09,521.83,600.71,523.57,600.85Z" transform="translate(-86.76 -86.72)"/><path d="M469.87,421.9a18.58,18.58,0,1,1,18.5-18.69A18.45,18.45,0,0,1,469.87,421.9Zm-.17-10.47a8.1,8.1,0,1,0-.06-16.2,8.1,8.1,0,0,0,.06,16.2Z" transform="translate(-86.76 -86.72)"/><path d="M312,403.27a18.59,18.59,0,1,1,18.3,18.64A18.38,18.38,0,0,1,312,403.27Zm18.47,8.16a8.11,8.11,0,1,0-8.06-8.11A8.15,8.15,0,0,0,330.48,411.43Z" transform="translate(-86.76 -86.72)"/></svg>